<svg xmlns="http://www.w3.org/2000/svg" width="347.98" height="309.94" viewBox="0 0 347.98 309.94">
  <defs>
    <style>
      .cls-1{fill:#333;}.cls-1,.cls-2,.cls-3,.cls-4,.cls-5,.cls-6,.cls-8{stroke:#000;stroke-width:3px;}.cls-2{fill:#757575;}.cls-3{fill:#fff;}.cls-5{fill:#71bb9a;}.cls-6{fill:none;}.cls-7{fill:#a4c5d8;}.cls-12,.cls-7{opacity:0.45;}.cls-8{fill:#777;}.cls-10,.cls-11,.cls-12,.cls-13,.cls-9{fill:#00aeef;}.cls-9{opacity:0.15;}.cls-10{opacity:0.23;}.cls-11{stroke:#757575;}.cls-13{opacity:0.34;}
    </style>
  </defs>
  <g id="Layer_1" data-name="Layer 1">
    <polygon class="cls-1" points="39.65 157.37 102.55 150.48 247.9 152.19 257.25 197.49 42.31 192.82 39.65 157.37"/>
    <path class="cls-2" d="M55.48,201.5c.6,2.56,13.62,36.1,13.62,36.1l18,23.19,43.67-16-17.34-54.12Z" transform="translate(-44.21 -68.09)"/>
    <polygon class="cls-2" points="52.32 155.22 58.09 167.22 42.31 173.23 52.32 155.22"/>
    <polygon class="cls-2" points="55.75 134.26 59.09 144.83 32.19 153.15 55.75 134.26"/>
    <polygon class="cls-2" points="67.95 159.22 61.7 169.22 75.4 164.22 67.95 159.22"/>

    <g id="eye1">
  		<circle id="svg_1" data-name="svg 1" class="cls-3" cx="177.9" cy="93.1" r="29.5"/>
  		<ellipse id="svg_3" data-name="svg 3" class="cls-4" cx="157" cy="86.1" rx="2.5" ry="3.5"/>
  	</g>
  	<g id="head">
  		<ellipse id="svg_5" data-name="svg 5" class="cls-5" cx="160.3" cy="143.7" rx="62" ry="51.8"/>
  	</g>
  	<g id="eye2">
  		<circle id="svg_2" data-name="svg 2" class="cls-3" cx="135.8" cy="105.4" r="29.5"/>
  		<ellipse id="svg_4" data-name="svg 4" class="cls-4" cx="113.6" cy="102.9" rx="3" ry="3.5"/>
  	</g>

    <path class="cls-6" d="M152,240q35,10,51-5" transform="translate(-44.21 -68.09)"/>
    <path class="cls-7" d="M93.34,104.71s-19,25.48,6.42,142.44v1.67s9.24,9.95,183.28-.88c0,0,22.51-101.88-19.59-152.29,0,0-18.14-18.43-54.77-26.48,0,0-52.92.19-62.35,2S95.54,100,93.34,104.71Z" transform="translate(-44.21 -68.09)"/>
    <path class="cls-6" d="M98.08,241.1s-26-126,0-140.53c0,0,32.82-30,57.07-30.95a26.65,26.65,0,0,1,5.17.28l49.12-.3s44,8.67,53.34,26.51c0,0,43.35,37.92,18.68,154.47,0,0-142.71,4.47-180.72,0Z" transform="translate(-44.21 -68.09)"/>
    <path class="cls-8" d="M60.56,233.55s9.75-8.48,3.74-1c0,0,2.51,11.58,26.51,14.54,0,0,102.53,16,205.55,0l-11.2-5.81,1.78-22.73,75.44,25-5,35.51s54.51,99-293.08,28c0,0-40-47-2.66-74.35Z" transform="translate(-44.21 -68.09)"/>
    <path class="cls-9" d="M245.63,138.74s17,52.7,9.29,93.58h24s4.64-91.51-16.65-101.57Z" transform="translate(-44.21 -68.09)"/>
    <path class="cls-10" d="M130.09,218.57s75.18,17.24,108.91,7V244s-78.46,8.62-108.91,0Z" transform="translate(-44.21 -68.09)"/>
  </g>
  <g id="Layer_2" data-name="Layer 2">

    <path class="cls-2" d="M380.73,252.93l3.35,75.13s-42.09,34-133.4,30.67l-46.64-8s150-26,134.7-36L327,242.7Z" transform="translate(-44.21 -68.09)"/>
    <path class="cls-11" d="M253.65,264l-24.94,22v48.68s10.67,28.67,71.35,10.66c0,0,88-15.06,69.35-35.54,0,0,10-52.33-18-57.07Z" transform="translate(-44.21 -68.09)">
      <animateTransform attributeName="transform" attributeType="XML" calcMode="spline"  begin="0s" dur="6s" repeatCount="indefinite" additive="sum"
        values="5; 0; -5; 0; 5" keyTimes="0; 0.25; 0.5; 0.75; 1"
        keySplines="0.5 0 0.5 1; 0.5 0 0.5 1; 0.5 0 0.5 1; 0.5 0 0.5 1"
      />
    </path>
    <path class="cls-2" d="M204,350.73V264s87.36-29.34,132-21.34l48,10.08s-92.83,3.26-130.43,28.6l-3,77.35Z" transform="translate(-44.21 -68.09)"/>
    <path class="cls-2" d="M-226.89,10.42" transform="translate(-44.21 -68.09)"/><path class="cls-2" d="M250.68,358.73" transform="translate(-44.21 -68.09)"/>
    <path class="cls-12" d="M237.23,312.27s60.42-8.21,88.67,22c0,0,28.45,13.58,35.52,7.49a4.83,4.83,0,0,0,1.58-3.91c-.05-14.15-52.92-51.26-9.7-71.37,0,0,48.95-12.4,21.12-10.88C374.42,255.56,214.42,287.69,237.23,312.27Z" transform="translate(-44.21 -68.09)">
      <animateTransform attributeName="transform" attributeType="XML" calcMode="spline"  begin="0s" dur="0.1s" repeatCount="indefinite" additive="sum"
        values="10; 20; 30; 15; 10" keyTimes="0; 0.25; 0.5; 0.75; 1"
        keySplines="0.5 0 0.5 1; 0.5 0 0.5 1; 0.5 0 0.5 1; 0.5 0 0.5 1"
      />
    </path>
    <path class="cls-13" d="M265.87,332.3c9.42-.58-3.29,16.68-9.33,20.68,0,0-18.21,46,9.57,13.33,0,0,32.41-51.91,47.11-40.67,0,0,36.68,36.67,22.67,38,0,0,20,15.33,25.34,2,0,0-16.44-59.49,8.78-62.75,0,0,11.89,16.34,21.23,5.2,0,0,3.4-15.75-2.67-14.47l-6.07,1.28s-5.93-15.29-21.27-11.28c0,0-32.67-34-18.67-39.35,0,0-36.77-3.84-27.39,14.42,0,0,8.72,28.26-5.28,18.26s-38-30.56-34.68-10.61c0,0,5.11,14.25,1.91,23.62a12.51,12.51,0,0,1-1.91,3.66C268.54,302.3,255.21,333,265.87,332.3Z" transform="translate(-44.21 -68.09)">
      <animateTransform attributeName="transform" attributeType="XML" calcMode="spline"  begin="0s" dur="0.03s" repeatCount="indefinite" additive="sum"
        values="10; 20; 30; 15; 10" keyTimes="0; 0.25; 0.5; 0.75; 1"
        keySplines="0.5 0 0.5 1; 0.5 0 0.5 1; 0.5 0 0.5 1; 0.5 0 0.5 1"
      />
    </path>
  </g>
</svg>
